{"title":"Justin Bieber - Sorry (PURPOSE  The Movement) Full HD 1080p.mkv","uid":14669564,"size":102708726,"categoryP":"video","categoryS":"music_videos","magnet":"?xt=urn:btih:184a8f8e7a9255c506160733d6f59ce79005251b&amp;dn=Justin+Bieber+-+Sorry+%28PURPOSE++The+Movement%29+Full+HD+1080p.mkv&amp;tr=udp%3A%2F%2Ftracker.leechers-paradise.org%3A6969&amp;tr=udp%3A%2F%2Fzer0day.ch%3A1337&amp;tr=udp%3A%2F%2Fopen.demonii.com%3A1337&amp;tr=udp%3A%2F%2Ftracker.coppersurfer.tk%3A6969&amp;tr=udp%3A%2F%2Fexodus.desync.com%3A6969","seeders":2,"leechers":1,"uploader":"MdTaRa","files":1,"time":1463858314,"description":"===================================================================================\r\nGeneral\r\nComplete name               : Justin Bieber - Sorry (PURPOSE  The Movement) Full HD 1080p.mkv\r\nFormat                      : Matroska\r\nFormat version              : Version 4 / Version 2\r\nFile size                   : 98.0 MiB\r\nDuration                    : 3mn 25s\r\nOverall bit rate mode       : Variable\r\nOverall bit rate            : 4 006 Kbps\r\n===================================================================================\r\nVideo\r\nID                          : 1\r\nFormat                      : AVC\r\nFormat/Info                 : Advanced Video Codec\r\nFormat profile              :   \r\nFormat settings, CABAC      : Yes\r\nFormat settings, ReFrames   : 3 frames\r\nCodec ID                    : V_MPEG4/ISO/AVC\r\nDuration                    : 3mn 25s\r\nBit rate mode               : Variable\r\nBit rate                    : 3 641 Kbps\r\nMaximum bit rate            : 40.0 Mbps\r\nWidth                       : 1 920 pixels\r\nHeight                      : 816 pixels\r\nDisplay aspect ratio        : 2.35:1\r\nFrame rate mode             : Constant\r\nFrame rate                  : 23.976 (24000/1001) fps\r\nColor space                 : YUV\r\nChroma subsampling          : 4:2:0\r\nBit depth                   : 8 bits\r\nScan type                   : Progressive\r\nBits/(Pixel*Frame)          : 0.097\r\nStream size                 : 89.1 MiB (91%)\r\nTitle                       : = __ TaRa ~ DDR __ =\r\nLanguage                    : English\r\nDefault                     : Yes\r\nForced                      : No\r\n===================================================================================\r\nAudio\r\nID                          : 2\r\nFormat                      : AAC\r\nFormat/Info                 : Advanced Audio Codec\r\nFormat profile              : LC\r\nCodec ID                    : A_AAC\r\nDuration                    : 3mn 25s\r\nBit rate                    : 353 Kbps\r\nChannel(s)                  : 2 channels\r\nChannel positions           : Front: L R\r\nSampling rate               : 44.1 KHz\r\nFrame rate                  : 43.066 fps (1024 spf)\r\nCompression mode            : Lossy\r\nDelay relative to video     : 10ms\r\nStream size                 : 8.73 MiB (9%)\r\nTitle                       : = __ TaRa ~ DDR __ =\r\nLanguage                    : English\r\nDefault                     : Yes\r\nForced                      : No\r\n=================================================================================== \nhttps://i.imgsafe.org/0673236.png","torrent":{"xt":"urn:btih:184a8f8e7a9255c506160733d6f59ce79005251b","amp;dn":"Justin+Bieber+-+Sorry+%28PURPOSE++The+Movement%29+Full+HD+1080p.mkv","amp;tr":["udp%3A%2F%2Ftracker.leechers-paradise.org%3A6969","udp%3A%2F%2Fzer0day.ch%3A1337","udp%3A%2F%2Fopen.demonii.com%3A1337","udp%3A%2F%2Ftracker.coppersurfer.tk%3A6969","udp%3A%2F%2Fexodus.desync.com%3A6969"],"infoHash":"184a8f8e7a9255c506160733d6f59ce79005251b","infoHashBuffer":{"type":"Buffer","data":[24,74,143,142,122,146,85,197,6,22,7,51,214,245,156,231,144,5,37,27]},"announce":[],"urlList":[]}}